<svg width="146" height="205" viewBox="0 0 146 205" fill="none" xmlns="http://www.w3.org/2000/svg">
<g style="mix-blend-mode:multiply">
<path d="M0 204.48V176.544L69.408 117.504C83.808 105.216 93.696 95.328 99.072 87.84C104.448 80.16 107.136 71.904 107.136 63.072C107.136 53.472 104.064 45.888 97.92 40.32C91.776 34.56 84 31.68 74.592 31.68C65.76 31.68 57.792 34.08 50.688 38.88C43.584 43.68 36.096 51.36 28.224 61.92L2.88 42.048C13.248 27.648 24 17.088 35.136 10.368C46.272 3.456 60.288 0 77.184 0C96.768 0 112.704 5.568 124.992 16.704C137.472 27.84 143.712 42.336 143.712 60.192V60.768C143.712 71.136 141.6 80.64 137.376 89.28C133.344 97.728 127.968 105.408 121.248 112.32C114.72 119.04 104.736 127.872 91.296 138.816L49.824 173.376H145.728V204.48H0Z" fill="#75D99D" fill-opacity="0.4"/>
</g>
</svg>
