<svg width="122" height="63" viewBox="0 0 122 63" fill="none" xmlns="http://www.w3.org/2000/svg">
<path d="M1.24539 20.7756C1.14959 12.1511 2.29918 6.57252 4.69417 4.03969C7.12109 1.47481 10.7136 0.192366 15.4716 0.192366C24.1255 0.192366 28.4524 4.74504 28.4524 13.8504C28.4524 17.0885 27.8776 20.6313 26.728 24.4786C25.5784 28.2939 23.5666 33.1672 20.6927 39.0985L13.0287 54.8244H26.6801V62.3267H0L10.6816 41.1664C10.9052 40.9099 11.1926 40.3489 11.5438 39.4832C11.927 38.6176 12.1985 38.0244 12.3581 37.7038C15.1044 32.1893 17.0523 27.7328 18.2019 24.3344C19.3515 20.9038 19.9263 17.6817 19.9263 14.6679C19.9263 12.3916 19.4792 10.6282 18.5851 9.37786C17.6909 8.09542 16.4615 7.4542 14.8968 7.4542C12.4379 7.4542 10.9052 8.6084 10.2984 10.9168C9.6917 13.1931 9.3564 16.4794 9.29254 20.7756H1.24539Z" fill="#00A8A8"/>
<path d="M50.0124 0C54.7385 0 58.2351 2.21221 60.5024 6.63664C62.8016 11.029 63.9512 19.2527 63.9512 31.3076C63.9512 41.1183 63.4562 47.8832 62.4663 51.6023C61.4764 55.3214 59.9755 58.1588 57.9637 60.1145C55.9519 62.0382 53.3015 63 50.0124 63C46.5955 63 43.8014 61.8458 41.6299 59.5374C39.4904 57.1969 38.0374 53.9908 37.271 49.9191C36.5366 45.8473 36.1694 39.1145 36.1694 29.7206C36.1694 21.4168 36.6164 15.4534 37.5106 11.8305C38.4366 8.17557 39.9055 5.29008 41.9173 3.17405C43.9291 1.05802 46.5955 0 49.9166 0H50.0124ZM55.2334 26.1618V23.9977C55.2334 19.2527 55.1217 16.0466 54.8981 14.3794C54.7065 12.7122 54.1796 11.1252 53.3174 9.61832C52.4552 8.11145 51.3216 7.35802 49.9166 7.35802C47.8728 7.35802 46.4997 8.68855 45.7972 11.3496C45.0947 14.0107 44.7434 18.4031 44.7434 24.5267V26.4985L44.8392 28.5664V30.7305L44.7434 35.9244V37.4153C44.7434 43.9557 45.0787 48.6366 45.7493 51.458C46.4199 54.2473 47.8409 55.642 50.0124 55.642C51.4494 55.642 52.551 55.0489 53.3174 53.8626C54.0838 52.6763 54.5788 50.8649 54.8023 48.4282C55.0259 45.9595 55.1376 40.2527 55.1376 31.3076V28.7588L55.2334 26.1618Z" fill="#00A8A8"/>
<path d="M83.8981 62.3267H75.9468V7.55038H70.582V0.961832H83.8981V62.3267Z" fill="#00A8A8"/>
<path d="M121.451 45.3023H118.099L118.003 45.3985V62.3267H109.956V45.3023H93.8613V37.7038L110.435 0.192366H118.003V37.9924H121.451V45.3023ZM110.051 37.9924V16.0145H109.86L100.232 37.9924H110.051Z" fill="#00A8A8"/>
</svg>
