<svg width="128" height="412" viewBox="0 0 128 412" fill="none" xmlns="http://www.w3.org/2000/svg">
<path d="M2.63012 0.175467L32.4383 0.175468L68.9096 51.0623C73.9361 58.1982 78.9041 61.7661 83.8137 61.7661C86.6192 61.7661 88.8402 60.7718 90.4767 58.7831C92.1132 56.9114 92.9315 54.2208 92.9315 50.7114C92.9315 47.202 91.7626 43.6925 89.4247 40.1831C87.2036 36.6736 83.2877 32.2868 77.6767 27.0227L100.647 -1.19566e-06C109.881 7.60379 116.661 15.5 120.986 23.6887C125.428 31.8774 127.649 42.0548 127.649 54.2208C127.649 68.2586 123.85 79.7813 116.252 88.7888C108.771 97.9134 99.1854 102.476 87.4959 102.476L87.1452 102.476C78.495 102.476 71.2475 100.37 65.4027 96.1587C59.558 92.0643 54.0055 85.9228 48.7452 77.7341L34.7178 55.8001L34.7178 103.704L2.63011 103.704L2.63012 0.175467Z" fill="#003BD5" fill-opacity="0.29"/>
<path d="M18.7616 213.725C6.25385 202.963 -2.35042e-05 188.632 -2.27218e-05 170.734C-2.19395e-05 152.836 6.19541 138.506 18.5863 127.744C30.9772 117.098 45.9982 111.776 63.6493 111.776L64 111.776C81.6511 111.776 96.7306 117.157 109.238 127.919C121.746 138.798 128 153.187 128 171.085C128 188.983 121.805 203.255 109.414 213.9C97.0228 224.663 82.0018 230.044 64.3507 230.044L64 230.044C46.3488 230.044 31.2694 224.604 18.7616 213.725ZM43.4849 157.574C38.2246 160.966 35.5945 165.47 35.5945 171.085C35.5945 176.7 38.1662 181.146 43.3096 184.421C48.4529 187.697 55.2329 189.334 63.6493 189.334L64 189.334C72.4164 189.334 79.2548 187.638 84.5151 184.246C89.7753 180.853 92.4055 176.349 92.4055 170.734C92.4055 165.119 89.8338 160.674 84.6904 157.398C79.547 154.123 72.7671 152.485 64.3507 152.485L64 152.485C55.5836 152.485 48.7452 154.181 43.4849 157.574Z" fill="#003BD5" fill-opacity="0.29"/>
<path d="M2.63011 256.554L90.3013 256.554L85.9178 236.55L116.252 229.18L126.247 265.854L126.247 296.912L2.63011 296.912L2.63011 256.554Z" fill="#003BD5" fill-opacity="0.29"/>
<path d="M-3.08825e-05 357.428C-2.99621e-05 336.372 6.72143 318.532 20.1644 303.909L46.4657 326.545C37.5817 337.658 33.1397 347.777 33.1397 356.902C33.1397 361.698 34.1918 365.441 36.2959 368.132C38.5169 370.94 41.3808 372.343 44.8876 372.343L45.2383 372.343C48.8621 372.343 51.726 370.998 53.8301 368.307C55.9342 365.734 56.9863 362.283 56.9863 357.955C56.9863 351.755 54.4146 345.496 49.2712 339.179L61.5452 314.438L125.37 317.947L125.37 406.56L92.9315 406.56L92.9315 348.479L76.9753 347.602C81.4173 354.738 83.6383 362.517 83.6383 370.94C83.6383 381.936 80.1899 391.528 73.2931 399.717C66.5132 407.906 57.0447 412 44.8876 412L44.537 412C30.6265 412 19.6968 406.911 11.7479 396.734C3.91595 386.674 -3.15881e-05 373.572 -3.08825e-05 357.428Z" fill="#003BD5" fill-opacity="0.29"/>
</svg>
