<svg width="283" height="88" viewBox="0 0 283 88" fill="none" xmlns="http://www.w3.org/2000/svg">
<path d="M0.121254 86.1918L0.121254 65.6986L35.2848 40.6247C40.2157 37.1689 42.6812 33.7534 42.6812 30.3781C42.6812 28.4493 41.9941 26.9224 40.6199 25.7973C39.3266 24.6721 37.4673 24.1096 35.0423 24.1096C32.6172 24.1096 30.1921 24.9132 27.7671 26.5205C25.342 28.0475 22.3106 30.7397 18.673 34.5973L0 18.8055C5.25432 12.4566 10.7107 7.79544 16.3692 4.82192C22.0277 1.76804 29.0604 0.241093 37.4673 0.241093C47.1676 0.241093 55.1299 2.85297 61.3543 8.07672C67.6595 13.2201 70.812 19.81 70.812 27.8466V28.0877C70.812 34.0347 69.357 39.0174 66.4469 43.0356C63.6177 47.0539 59.3738 50.8712 53.7153 54.4877L38.5586 64.1315L71.6608 64.1315V86.1918L0.121254 86.1918Z" fill="#E9859D" fill-opacity="0.4"/>
<path d="M147.687 75.1014C140.25 83.7005 130.348 88 117.98 88C105.612 88 95.7094 83.7406 88.2726 75.2219C80.9165 66.7032 77.2385 56.3763 77.2385 44.2411L77.2385 44C77.2385 31.8648 80.9569 21.4977 88.3938 12.8986C95.9115 4.29954 105.854 0 118.222 0C130.59 0 140.452 4.25936 147.808 12.7781C155.245 21.2968 158.963 31.6237 158.963 43.7589V44C158.963 56.1352 155.204 66.5023 147.687 75.1014ZM108.886 58.1041C111.23 61.7205 114.342 63.5288 118.222 63.5288C122.102 63.5288 125.174 61.7607 127.437 58.2247C129.701 54.6886 130.833 50.0274 130.833 44.2411V44C130.833 38.2137 129.66 33.5123 127.316 29.8959C124.972 26.2795 121.86 24.4712 117.98 24.4712C114.1 24.4712 111.028 26.2393 108.764 29.7753C106.501 33.3114 105.369 37.9726 105.369 43.7589V44C105.369 49.7863 106.541 54.4877 108.886 58.1041Z" fill="#E9859D" fill-opacity="0.4"/>
<path d="M177.282 86.1918V25.9178L163.459 28.9315L158.367 8.07672L183.709 1.20548L205.17 1.20548V86.1918H177.282Z" fill="#E9859D" fill-opacity="0.4"/>
<path d="M215.341 86.1918L252.08 25.074L213.4 25.074V1.80822L283 1.80822V23.0247L246.139 86.1918L215.341 86.1918Z" fill="#E9859D" fill-opacity="0.4"/>
</svg>
