<svg width="89" height="285" viewBox="0 0 89 285" fill="none" xmlns="http://www.w3.org/2000/svg">
<path d="M87.1712 284.879L66.4452 284.879L41.0863 249.798C37.5913 244.878 34.137 242.419 30.7233 242.419C28.7726 242.419 27.2283 243.104 26.0904 244.475C24.9525 245.765 24.3836 247.62 24.3836 250.04C24.3836 252.459 25.1963 254.878 26.8219 257.298C28.3662 259.717 31.089 262.741 34.9904 266.371L19.0192 285C12.5982 279.758 7.88402 274.314 4.87671 268.669C1.78813 263.024 0.243831 256.007 0.243831 247.62C0.24383 237.943 2.88539 229.999 8.1685 223.789C13.3703 217.499 20.0352 214.353 28.163 214.353L28.4068 214.353C34.4215 214.353 39.4607 215.805 43.5247 218.708C47.5886 221.531 51.4493 225.765 55.1069 231.41L64.8603 246.531L64.8603 213.507L87.1712 213.507L87.1712 284.879Z" fill="#658EDE" fill-opacity="0.4"/>
<path d="M75.9548 137.658C84.6516 145.078 89 154.957 89 167.296C89 179.635 84.6922 189.514 76.0767 196.934C67.4612 204.273 57.0169 207.942 44.7438 207.942L44.5 207.942C32.2269 207.942 21.742 204.232 13.0452 196.813C4.3484 189.313 -4.61623e-06 179.393 -5.15558e-06 167.054C-5.69493e-06 154.715 4.30775 144.876 12.9233 137.537C21.5388 130.118 31.9831 126.408 44.2562 126.408L44.5 126.408C56.7731 126.408 67.258 130.158 75.9548 137.658ZM58.7644 176.369C62.4219 174.03 64.2507 170.925 64.2507 167.054C64.2507 163.183 62.4626 160.118 58.8863 157.86C55.31 155.602 50.5959 154.473 44.7438 154.473L44.5 154.473C38.6479 154.473 33.8932 155.643 30.2356 157.981C26.5781 160.32 24.7493 163.425 24.7493 167.296C24.7493 171.167 26.5374 174.232 30.1137 176.49C33.69 178.748 38.4041 179.877 44.2562 179.877L44.5 179.877C50.3521 179.877 55.1068 178.708 58.7644 176.369Z" fill="#658EDE" fill-opacity="0.4"/>
<path d="M87.1712 108.132L26.2123 108.132L29.2603 121.923L8.16849 127.004L1.21917 101.721L1.21917 80.3091L87.1712 80.3091L87.1712 108.132Z" fill="#658EDE" fill-opacity="0.4"/>
<path d="M88.7562 36.8959C88.7562 47.7832 86.4397 56.6544 81.8069 63.5094C77.0927 70.3643 71.0374 73.7918 63.6411 73.7918L63.3973 73.7918C53.8877 73.7918 47.0603 68.7111 42.9151 58.5496C38.6886 66.7755 32.5114 70.8885 24.3836 70.8885L24.1397 70.8885C17.1498 70.8885 11.4196 67.7433 6.9493 61.4529C2.47898 55.0818 0.243822 46.8961 0.243822 36.8959C0.243821 26.8957 2.47898 18.7504 6.9493 12.4599C11.4196 6.08884 17.1498 2.90329 24.1397 2.90329L24.3836 2.90329C32.5114 2.90329 38.6886 7.01629 42.9151 15.2422C47.0603 5.08078 53.8877 -2.35551e-06 63.3973 -2.77118e-06L63.6411 -2.78184e-06C71.1187 -3.1087e-06 77.174 3.42752 81.8068 10.2825C86.4397 17.0568 88.7562 25.9279 88.7562 36.8959ZM33.8931 43.3073C35.4374 41.6137 36.2096 39.4766 36.2096 36.8959C36.2096 34.3152 35.4374 32.2184 33.8931 30.6055C32.2676 28.9119 30.2763 28.0651 27.9192 28.0651L27.6753 28.0651C25.4808 28.0651 23.6114 28.9119 22.0671 30.6055C20.4415 32.2184 19.6288 34.3152 19.6288 36.8959C19.6288 39.4766 20.4415 41.6137 22.0671 43.3073C23.6114 44.9203 25.4808 45.7267 27.6753 45.7267L27.9192 45.7267C30.2763 45.7267 32.2676 44.9203 33.8931 43.3073ZM66.5671 44.1541C68.1927 42.4605 69.0055 40.0411 69.0055 36.8959C69.0055 33.7507 68.1927 31.3313 66.5671 29.6377C64.8603 27.9441 62.8283 27.0973 60.4712 27.0973L60.2274 27.0973C57.789 27.0973 55.7977 28.0248 54.2534 29.8796C52.7091 31.6539 51.937 33.9926 51.937 36.8959C51.937 39.7992 52.7091 42.1783 54.2534 44.0331C55.7977 45.8074 57.789 46.6945 60.2274 46.6945L60.4712 46.6945C62.8283 46.6945 64.8603 45.8477 66.5671 44.1541Z" fill="#658EDE" fill-opacity="0.4"/>
</svg>
