<svg width="148" height="206" viewBox="0 0 148 206" fill="none" xmlns="http://www.w3.org/2000/svg">
<g style="mix-blend-mode:multiply">
<path d="M77.184 205.056C45.312 205.056 19.584 193.344 0 169.92L24.768 146.592C39.744 164.256 57.408 173.088 77.76 173.088C87.744 173.088 96 170.304 102.528 164.736C109.248 158.976 112.608 151.584 112.608 142.56V141.984C112.608 132.192 108.48 124.608 100.224 119.232C91.968 113.664 80.64 110.88 66.24 110.88H49.824L44.064 88.704L98.496 30.816H11.232V0H144.576V26.496L88.416 84.096C105.504 86.208 119.616 91.872 130.752 101.088C142.08 110.112 147.744 123.264 147.744 140.544V141.12C147.744 159.744 141.216 175.104 128.16 187.2C115.104 199.104 98.112 205.056 77.184 205.056Z" fill="#658EDE" fill-opacity="0.4"/>
</g>
</svg>
